HIERARCHY
ROOT Hips
{
     OFFSET 1.88212 96.90440 -13.34250
     CHANNELS 6 Xposition Yposition Zposition Zrotation Xrotation Yrotation
     JOINT Spine
     {
          OFFSET 0.00000 11.89050 0.00000
          CHANNELS 3 Zrotation Xrotation Yrotation
          JOINT Spine1
          {
               OFFSET -0.00000 25.65740 0.12766
               CHANNELS 3 Zrotation Xrotation Yrotation
               JOINT HEad
               {
                    OFFSET 0.00000 8.73416 0.01134
                    CHANNELS 3 Zrotation Xrotation Yrotation
                    End Site
                    {
                         OFFSET -0.29000 12.77420 2.51395
                    }
               }
               JOINT LeftShoulder1
               {
                    OFFSET 8.99000 -0.36225 -0.22000
                    CHANNELS 3 Zrotation Xrotation Yrotation
                    JOINT LeftArm
                    {
                         OFFSET 10.28270 -0.00338 0.32212
                         CHANNELS 3 Zrotation Xrotation Yrotation
                         JOINT LeftForeArm
                         {
                              OFFSET 32.76690 0.09914 -1.42434
                              CHANNELS 3 Zrotation Xrotation Yrotation
                              JOINT LeftHand
                              {
                                   OFFSET 27.56430 0.08536 1.02216
                                   CHANNELS 3 Zrotation Xrotation Yrotation
                                   End Site
                                   {
                                        OFFSET 16.74430 -0.60000 1.50291
                                   }
                              }
                         }
                    }
               }
               JOINT RightShoulder
               {
                    OFFSET -8.99000 -0.36225 -0.22000
                    CHANNELS 3 Zrotation Xrotation Yrotation
                    JOINT RightArm
                    {
                         OFFSET -10.28270 -0.00338 0.32212
                         CHANNELS 3 Zrotation Xrotation Yrotation
                         JOINT RightForeArm
                         {
                              OFFSET -32.89710 0.09914 -1.42434
                              CHANNELS 3 Zrotation Xrotation Yrotation
                              JOINT RightHand
                              {
                                   OFFSET -27.49210 0.08536 1.02216
                                   CHANNELS 3 Zrotation Xrotation Yrotation
                                   End Site
                                   {
                                        OFFSET -16.63120 -0.60000 1.50291
                                   }
                              }
                         }
                    }
               }
          }
     }
     JOINT LeftUpLeg
     {
          OFFSET 8.94580 -8.66707 0.10165
          CHANNELS 3 Zrotation Xrotation Yrotation
          JOINT LeftLeg
          {
               OFFSET 0.00000 -44.42270 1.37270
               CHANNELS 3 Zrotation Xrotation Yrotation
               JOINT LeftFoot
               {
                    OFFSET -0.25355 -42.09240 -1.46059
                    CHANNELS 3 Zrotation Xrotation Yrotation
                    JOINT LeftToes
                    {
                         OFFSET -0.04000 -4.41509 8.49910
                         CHANNELS 3 Zrotation Xrotation Yrotation
                         End Site
                         {
                              OFFSET 0.08000 -0.04745 9.77979
                         }
                    }
               }
          }
     }
     JOINT RightUpLeg
     {
          OFFSET -8.94580 -8.66707 0.10165
          CHANNELS 3 Zrotation Xrotation Yrotation
          JOINT RightLeg
          {
               OFFSET 0.00000 -44.42270 1.37270
               CHANNELS 3 Zrotation Xrotation Yrotation
               JOINT RightFoot
               {
                    OFFSET 0.25355 -42.09240 -1.46059
                    CHANNELS 3 Zrotation Xrotation Yrotation
                    JOINT RightToes
                    {
                         OFFSET 0.04000 -4.41509 8.49910
                         CHANNELS 3 Zrotation Xrotation Yrotation
                         End Site
                         {
                              OFFSET -0.08000 -0.13745 9.77979
                         }
                    }
               }
          }
     }
}
MOTION
Frames: 8
Frame Time: 0.01667
23.74699 91.95845 -43.28146 3.47589 10.67658 150.71826 -16.23204 23.95553 -8.49824 -0.00138 0.07438 0.10915 -29.84177 23.78188 42.24504 -6.23999 5.44348 18.44087 -151.73082 -74.50854 -126.47674 -24.89771 62.77874 -109.77978 13.09948 6.39629 2.61816 17.08425 13.49245 16.24026 73.49285 1.28018 74.47466 1.13295 25.37308 91.20238 15.09095 8.29695 12.40709 15.00294 -5.90908 -30.47177 -27.03574 -4.86263 72.16232 -29.81152 0.00399 0.00018 42.37583 -8.00497 -48.54726 -30.56136 17.41225 3.98057 28.10885 -3.69917 -37.15651 -22.26686 0.00556 -0.01581 13.30310 -17.78286 25.73848 
23.11670 92.18527 -43.83035 3.74853 10.91423 151.47145 -15.11257 24.47993 -7.56749 -0.00920 0.01314 0.00053 -28.16959 23.37890 39.78665 -5.88431 6.12114 16.55969 -151.58766 -75.12137 -126.37334 -25.31944 61.02599 -110.89138 11.78472 7.01649 4.24816 17.01887 12.99481 13.97259 74.45484 1.29483 74.22387 0.73353 25.72238 91.93894 15.04451 9.74842 11.92002 15.10995 -4.62582 -34.19876 -26.73503 -7.99040 74.85315 -30.40577 0.00535 0.00050 43.98626 -9.17038 -49.13219 -29.60326 18.42595 -2.04194 26.46548 -1.90861 -32.22474 -21.01635 0.00157 -0.01477 12.75488 -16.78127 25.93396 
22.40399 92.39085 -44.39775 4.11325 11.07661 152.06226 -13.89965 24.58437 -6.33095 -0.01007 0.01353 -0.01056 -26.56648 23.38234 37.07981 -5.60152 7.05505 14.30898 -151.53561 -75.64693 -126.28760 -25.54636 59.73866 -111.71976 11.25585 6.23803 5.58132 16.95336 12.71898 11.37902 75.39404 1.29516 73.97553 0.23872 26.08367 92.79428 15.24276 9.41110 11.99631 15.13357 -3.34768 -36.20247 -26.33217 -10.24437 76.27010 -30.02664 -0.00041 -0.00022 44.56179 -10.33502 -49.83268 -29.35118 18.48837 -6.08219 26.62490 0.56970 -27.08716 -20.56732 -0.01148 -0.02038 11.71934 -16.70108 23.95155 
21.62574 92.58485 -44.99220 4.53362 11.18254 152.50923 -12.76296 24.67629 -5.06915 -0.00924 0.01207 -0.01186 -24.95191 23.31590 34.37457 -5.56006 7.83132 12.75463 -139.90480 -73.34361 -116.01042 -22.94824 57.46355 -111.89331 10.53990 6.61138 6.61113 16.92929 12.46947 9.03516 76.31508 1.20446 73.78065 -0.30865 26.42403 93.67091 15.26374 10.34394 11.57689 15.02233 -2.14401 -36.64424 -25.91530 -11.50084 76.54695 -29.75311 -0.00027 0.00014 45.00866 -11.44317 -50.61774 -29.61161 17.74562 -8.28361 28.51062 4.85043 -23.12786 -22.95528 0.16004 0.04587 12.57363 -18.72486 20.73142 
20.80378 92.76633 -45.59805 4.97858 11.24629 152.83128 -11.71329 24.75830 -3.81343 -0.00843 0.01256 -0.01272 -23.36546 23.17319 31.72271 -5.48935 8.52565 11.37160 -134.78325 -72.41441 -111.39288 -21.81007 55.87523 -112.95745 10.03854 6.17167 7.76826 16.93407 12.24664 6.90648 77.19358 1.06452 73.66947 -0.88041 26.71819 94.55825 15.43573 10.23307 11.55568 14.74697 -1.06739 -35.67112 -25.55201 -11.82063 75.78633 -29.59399 0.00038 0.00050 45.33386 -12.44681 -51.46866 -30.29078 16.43270 -8.80602 30.11828 8.48727 -21.12642 -25.11355 0.07146 -0.00429 13.60396 -19.70214 18.09237 
19.96151 92.94112 -46.19875 5.42639 11.28341 153.05901 -10.75531 24.84469 -2.60660 -0.00772 0.01358 -0.01330 -21.83852 22.95739 29.16990 -5.35572 9.13922 9.91499 -132.97429 -72.48441 -109.52255 -21.36827 54.89082 -114.27333 9.43120 6.35050 8.53488 16.93304 12.04710 4.99462 78.04170 0.88707 73.65351 -1.44913 26.95871 95.44491 15.51935 10.79822 11.21638 14.30425 -0.15104 -33.43271 -25.24819 -11.27383 74.07727 -29.56336 0.00101 0.00090 45.54620 -13.32364 -52.36540 -31.18632 14.58275 -7.86084 33.08491 13.16761 -20.74947 -24.34426 0.06624 0.07412 10.98665 -22.17056 14.95230 
19.12603 93.11349 -46.77640 5.86853 11.29829 153.22058 -9.88906 24.94259 -1.48094 -0.00725 0.01413 -0.01351 -20.38507 22.67918 26.75307 -5.24219 9.65627 8.41148 -133.05400 -73.04548 -109.25198 -21.20143 54.37511 -115.41261 9.14603 6.08409 8.71794 16.90958 11.86901 3.29456 78.86861 0.67853 73.73815 -1.97817 27.13964 96.33484 15.70112 10.73538 11.12244 13.72487 0.57811 -30.06857 -24.96194 -9.93643 71.50038 -29.67445 0.00162 0.00139 45.65955 -14.06063 -53.28032 -32.16011 12.26546 -5.66886 36.98055 17.92331 -21.82289 -26.94582 0.17290 0.01032 11.38454 -25.05640 11.47816 
18.32503 93.27995 -47.31415 6.30172 11.28833 153.33867 -9.11071 25.05080 -0.45546 -0.00652 0.01406 -0.01335 -19.01121 22.35423 24.49702 -5.18004 10.07633 6.96934 -134.20480 -73.67784 -109.85950 -20.87178 54.30046 -116.46756 8.93899 6.20788 8.44138 16.87545 11.71045 1.80351 79.66424 0.44480 73.91835 -2.45106 27.26651 97.22024 15.83191 11.02982 10.80446 13.06095 1.08970 -25.70518 -24.61962 -7.89379 68.12782 -29.92860 0.00217 0.00196 45.68750 -14.64827 -54.18268 -33.06151 9.60267 -2.42155 41.83490 22.12561 -24.48722 -27.29302 0.10014 0.04665 9.22731 -27.99742 7.94873 
